<svg xmlns="http://www.w3.org/2000/svg" viewBox="0 0 100 100">
  <!-- Outer gear teeth -->
  <g fill="#ffffff">
    <rect x="42" y="2" width="16" height="14" rx="1" transform="rotate(0 50 50)"/>
    <rect x="42" y="2" width="16" height="14" rx="1" transform="rotate(45 50 50)"/>
    <rect x="42" y="2" width="16" height="14" rx="1" transform="rotate(90 50 50)"/>
    <rect x="42" y="2" width="16" height="14" rx="1" transform="rotate(135 50 50)"/>
    <rect x="42" y="2" width="16" height="14" rx="1" transform="rotate(180 50 50)"/>
    <rect x="42" y="2" width="16" height="14" rx="1" transform="rotate(225 50 50)"/>
    <rect x="42" y="2" width="16" height="14" rx="1" transform="rotate(270 50 50)"/>
    <rect x="42" y="2" width="16" height="14" rx="1" transform="rotate(315 50 50)"/>
  </g>
  
  <!-- Outer ring -->
  <circle cx="50" cy="50" r="38" fill="none" stroke="#ffffff" stroke-width="6"/>
  
  <!-- Middle ring -->
  <circle cx="50" cy="50" r="28" fill="none" stroke="#ffffff" stroke-width="4"/>
  
  <!-- Inner ring -->
  <circle cx="50" cy="50" r="18" fill="none" stroke="#ffffff" stroke-width="3"/>
  
  <!-- Center dot -->
  <circle cx="50" cy="50" r="6" fill="#ffffff"/>
</svg>
